# xmcd
# Copyright (C) 1995-1998 Ti Kan
#
# Track frame offsets:
#       150
#       20286
#       38675
#       56921
#       77166
#       92619
#       109787
#       128770
#       145386
#       166618
#       186309
#       202819
#
# Disc length: 2914 seconds
#
# Revision: 2
# Processed by: cddbd v1.5.1PL2 Copyright (c) Steve Scherf et al.
# Submitted via: CD-Transfer v1.0
#
DISCID=970b600c
DTITLE=Ivo - Closer
DYEAR=2006
DGENRE=
TTITLE0=Everything I Am
TTITLE1=She's The Reason
TTITLE2=Somebody New
TTITLE3=Hold On
TTITLE4=Closer
TTITLE5=Born The Wrong Day
TTITLE6=Let Me Go
TTITLE7=I Don't Wanna Love
TTITLE8=How Far Will You Go
TTITLE9=Is It Over Now?
TTITLE10=Sleep Without You (Bonus Track)
TTITLE11=Right Now (Bonus Track)
EXTD=
EXTT0=
EXTT1=
EXTT2=
EXTT3=
EXTT4=
EXTT5=
EXTT6=
EXTT7=
EXTT8=
EXTT9=
EXTT10=
EXTT11=
PLAYORDER=
